<svg xmlns="http://www.w3.org/2000/svg" width="16.76" height="17.62" viewBox="0 0 16.76 17.62">
  <g id="chat_2_" data-name="chat (2)" transform="translate(3 -31.125)">
    <path id="Exclusion_22" data-name="Exclusion 22" d="M14.987,17.62a1.769,1.769,0,0,1-.994-.309l-2.32-1.545H2.657A2.66,2.66,0,0,1,0,13.109V2.658A2.66,2.66,0,0,1,2.657,0H12.814a2.66,2.66,0,0,1,2.657,2.657v9l1.2,3.65a.069.069,0,0,1,0,.012,1.779,1.779,0,0,1-1.689,2.306Zm-8.8-7.328h2.7l.386,1.022a.884.884,0,0,0,1.141.516.886.886,0,0,0,.516-1.141L8.5,4.283l0-.012,0-.013a1.026,1.026,0,0,0-.951-.64H7.539a1.029,1.029,0,0,0-.955.642.143.143,0,0,0-.008.02l-2.44,6.4a.886.886,0,1,0,1.656.631l.39-1.024ZM8.211,8.52H6.858l.679-1.784L8.21,8.519Z" transform="translate(-3 31.125)" fill="#fff"/>
  </g>
</svg>
