<svg id="Component_268_1" data-name="Component 268 – 1" xmlns="http://www.w3.org/2000/svg" xmlns:xlink="http://www.w3.org/1999/xlink" width="32" height="32" viewBox="0 0 32 32">
  <defs>
    <clipPath id="clip-path">
      <rect id="Rectangle_6160" data-name="Rectangle 6160" width="32" height="32" transform="translate(173 58)" fill="none"/>
    </clipPath>
  </defs>
  <g id="Mask_Group_114" data-name="Mask Group 114" transform="translate(-173 -58)" clip-path="url(#clip-path)">
    <g id="timer" transform="translate(153.096 59)">
      <path id="Path_12414" data-name="Path 12414" d="M37.854,4.861V2.532h1.063a1.266,1.266,0,1,0,0-2.532H32.892a1.266,1.266,0,0,0,0,2.532h1.063v2.33a12.644,12.644,0,1,0,3.9,0ZM35.9,27.468A10.113,10.113,0,1,1,46.017,17.356,10.124,10.124,0,0,1,35.9,27.468Z" fill="#ff7f74"/>
      <path id="Path_12415" data-name="Path 12415" d="M138.146,102.021V96.057a1.266,1.266,0,0,0-2.532,0v6.694a.774.774,0,0,0,.228.549l3.541,3.527a1.266,1.266,0,0,0,1.787-1.794Z" transform="translate(-100.975 -85.191)" fill="#ff7f74"/>
    </g>
  </g>
</svg>
