<svg xmlns="http://www.w3.org/2000/svg" width="24" height="24" viewBox="0 0 24 24">
  <g id="Group_13896" data-name="Group 13896" transform="translate(42)">
    <g id="Component_254_6" data-name="Component 254 – 6" transform="translate(-42)">
      <path id="Union_436" data-name="Union 436" d="M.394,14.81A.759.759,0,0,1,0,14.148V.917A.762.762,0,0,1,.394.255.808.808,0,0,1,.87.157.8.8,0,0,1,1.36.25l9.2,6.487a.745.745,0,0,1,.386.649s0,.009,0,.014a.74.74,0,0,1,.012.132.762.762,0,0,1-.393.662L1.181,14.81a.805.805,0,0,1-.787,0Zm13.2.051a2,2,0,0,1-2-1.981,2.015,2.015,0,0,1-.024-.307V2a2,2,0,0,1,2-2H14.7a2,2,0,0,1,2,2V12.861a2,2,0,0,1-2,2Z" transform="translate(20.348 19.457) rotate(180)" fill="#fff"/>
      <rect id="Rectangle_5895" data-name="Rectangle 5895" width="24" height="24" fill="none"/>
    </g>
  </g>
</svg>
