<svg xmlns="http://www.w3.org/2000/svg" xmlns:xlink="http://www.w3.org/1999/xlink" width="16" height="16" viewBox="0 0 16 16">
  <defs>
    <clipPath id="clip-path">
      <rect id="Rectangle_6070" data-name="Rectangle 6070" width="16" height="16" transform="translate(166 241.795)" fill="none" stroke="#707070" stroke-width="1"/>
    </clipPath>
  </defs>
  <g id="Mask_Group_2" data-name="Mask Group 2" transform="translate(-166 -241.795)" clip-path="url(#clip-path)">
    <g id="safety-lock" transform="translate(111.115 242.296)">
      <g id="Group_3359" data-name="Group 3359" transform="translate(57.344 0)">
        <path id="Subtraction_91" data-name="Subtraction 91" d="M5.925,15H5.158a5.134,5.134,0,0,1-3.644-1.511A5.078,5.078,0,0,1,0,9.872,5.242,5.242,0,0,1,1.342,6.4V4.256A4.233,4.233,0,0,1,5.541,0a4.233,4.233,0,0,1,4.2,4.256V6.367a5.242,5.242,0,0,1,1.342,3.471A5.166,5.166,0,0,1,5.925,15ZM5.54,8.358a1.367,1.367,0,0,0-.765,2.5v1.458H6.308v-1.46a1.367,1.367,0,0,0-.768-2.5Zm0-6.824A2.706,2.706,0,0,0,2.858,4.256v.977a5.164,5.164,0,0,1,2.3-.541h.767a5.054,5.054,0,0,1,2.3.541V4.256A2.706,2.706,0,0,0,5.541,1.535Z" transform="translate(0 0)" fill="#5c84ac"/>
      </g>
    </g>
  </g>
</svg>
