<svg xmlns="http://www.w3.org/2000/svg" width="15.32" height="15.295" viewBox="0 0 15.32 15.295">
  <g id="zoom" transform="translate(-11 -11.4)">
    <g id="Group_14209" data-name="Group 14209" transform="translate(11 11.4)">
      <path id="Path_50855" data-name="Path 50855" d="M135,132.679h-1.541v-1.541a.638.638,0,0,0-1.276,0v1.541h-1.541a.638.638,0,0,0,0,1.276h1.541V135.5a.638.638,0,0,0,1.276,0v-1.541H135a.638.638,0,0,0,0-1.276Z" transform="translate(-126.279 -126.776)" fill="#fff"/>
      <path id="Path_50856" data-name="Path 50856" d="M17.541,23.2A5.256,5.256,0,1,1,22.8,17.941,5.256,5.256,0,0,1,17.541,23.2Zm8.592,2.439L22.59,22.093a6.51,6.51,0,1,0-.9.9l3.542,3.542a.734.734,0,0,0,.9,0,.641.641,0,0,0,0-.9Z" transform="translate(-11 -11.4)" fill="#fff"/>
    </g>
  </g>
</svg>
