<svg xmlns="http://www.w3.org/2000/svg" xmlns:xlink="http://www.w3.org/1999/xlink" width="30" height="30" viewBox="0 0 30 30">
  <defs>
    <clipPath id="clip-path">
      <rect id="Rectangle_6011" data-name="Rectangle 6011" width="30" height="30" transform="translate(0 0)" fill="none" stroke="#707070" stroke-width="1"/>
    </clipPath>
  </defs>
  <g id="shrirk" transform="translate(0 0)">
    <g id="Mask_Group_92" data-name="Mask Group 92" transform="translate(0 0)" clip-path="url(#clip-path)">
      <g id="expand" transform="translate(2.934 3.519)">
        <path id="Path_13855" data-name="Path 13855" d="M4.709,7.65H3.139a1.311,1.311,0,1,0,0,2.622h4.75a1.319,1.319,0,0,0,.245-.024c.039-.008.076-.023.115-.034a1.257,1.257,0,0,0,.131-.041,1.3,1.3,0,0,0,.125-.066c.034-.018.069-.033.1-.055a1.284,1.284,0,0,0,.2-.16l0,0,.007-.008c.015-.015.027-.034.041-.05a1.3,1.3,0,0,0,.442-.975V4.122a1.312,1.312,0,0,0-2.625,0V5.9L2.241,1.478A1.312,1.312,0,0,0,.385,3.332Z" transform="translate(0 -1.093)" fill="#fff"/>
        <path id="Path_13856" data-name="Path 13856" d="M2.24,42.04,6.67,37.615v1.78a1.312,1.312,0,0,0,2.625,0V34.662a1.3,1.3,0,0,0-.442-.975,1.317,1.317,0,0,0-.248-.222c-.031-.021-.065-.035-.1-.053a1.286,1.286,0,0,0-.129-.067c-.043-.018-.087-.028-.131-.041s-.074-.026-.114-.033a1.307,1.307,0,0,0-.257-.026H3.138a1.311,1.311,0,1,0,0,2.622h1.57L.385,40.186A1.312,1.312,0,1,0,2.24,42.04Z" transform="translate(0 -19.82)" fill="#fff"/>
        <path id="Path_13857" data-name="Path 13857" d="M35.409,40.706a1.312,1.312,0,0,0,1.312-1.311v-1.78l4.429,4.425a1.312,1.312,0,1,0,1.856-1.854l-4.324-4.319h1.57a1.311,1.311,0,1,0,0-2.622H35.515a1.3,1.3,0,0,0-.257.026,1.2,1.2,0,0,0-.117.035,1.3,1.3,0,0,0-.128.039,1.364,1.364,0,0,0-.135.071c-.03.017-.062.03-.091.049a1.708,1.708,0,0,0-.691,1.2v4.733A1.312,1.312,0,0,0,35.409,40.706Z" transform="translate(-19.806 -19.82)" fill="#fff"/>
        <path id="Path_13858" data-name="Path 13858" d="M41.956,1.093a1.309,1.309,0,0,0-.928.384L36.6,5.9V4.122a1.312,1.312,0,0,0-2.625,0V8.856a1.3,1.3,0,0,0,.443.975,1.314,1.314,0,0,0,.248.222c.03.02.063.034.094.051a1.308,1.308,0,0,0,.132.069,1.239,1.239,0,0,0,.13.04c.038.011.075.026.115.034a1.3,1.3,0,0,0,.257.026h4.738a1.311,1.311,0,1,0,0-2.622h-1.57l4.324-4.319a1.312,1.312,0,0,0-.928-2.239Z" transform="translate(-19.684 -1.093)" fill="#fff"/>
      </g>
    </g>
  </g>
</svg>
