<svg xmlns="http://www.w3.org/2000/svg" xmlns:xlink="http://www.w3.org/1999/xlink" width="30" height="30" viewBox="0 0 30 30">
  <defs>
    <clipPath id="clip-path">
      <rect id="Rectangle_6011" data-name="Rectangle 6011" width="30" height="30" transform="translate(0 0)" fill="none" stroke="#707070" stroke-width="1"/>
    </clipPath>
  </defs>
  <g id="shrirk" transform="translate(0 0)">
    <g id="Mask_Group_92" data-name="Mask Group 92" transform="translate(0 0)" clip-path="url(#clip-path)">
      <g id="expand" transform="translate(2.934 3.519)">
        <path id="Path_13855" data-name="Path 13855" d="M4.587,3.716H6.157a1.311,1.311,0,1,0,0-2.622H1.407a1.319,1.319,0,0,0-.245.024c-.039.008-.076.023-.115.034a1.257,1.257,0,0,0-.131.041,1.3,1.3,0,0,0-.125.066c-.034.018-.069.033-.1.055a1.284,1.284,0,0,0-.2.16l0,0-.007.008c-.015.015-.027.034-.041.05A1.3,1.3,0,0,0,0,2.512V7.245a1.312,1.312,0,0,0,2.625,0V5.465L7.055,9.889A1.312,1.312,0,0,0,8.911,8.034Z" transform="translate(-0.001 -1.094)" fill="#fff"/>
        <path id="Path_13856" data-name="Path 13856" d="M7.054,33.629,2.625,38.054v-1.78a1.312,1.312,0,0,0-2.625,0v4.733a1.3,1.3,0,0,0,.442.975,1.317,1.317,0,0,0,.248.222c.031.021.065.035.1.053a1.285,1.285,0,0,0,.129.067c.043.018.087.028.131.041s.074.026.114.033a1.307,1.307,0,0,0,.257.026H6.156a1.311,1.311,0,1,0,0-2.622H4.586L8.91,35.483a1.312,1.312,0,0,0-1.856-1.854Z" transform="translate(0 -19.82)" fill="#fff"/>
        <path id="Path_13857" data-name="Path 13857" d="M42.078,34.963a1.312,1.312,0,0,0-1.312,1.311v1.78l-4.429-4.425a1.312,1.312,0,0,0-1.856,1.854L38.8,39.8h-1.57a1.311,1.311,0,1,0,0,2.622h4.738a1.3,1.3,0,0,0,.257-.026,1.2,1.2,0,0,0,.117-.035,1.3,1.3,0,0,0,.128-.039,1.363,1.363,0,0,0,.135-.071c.03-.017.062-.03.091-.049a1.708,1.708,0,0,0,.691-1.2V36.274A1.312,1.312,0,0,0,42.078,34.963Z" transform="translate(-19.806 -19.82)" fill="#fff"/>
        <path id="Path_13858" data-name="Path 13858" d="M35.287,10.273a1.308,1.308,0,0,0,.928-.384l4.429-4.425v1.78a1.312,1.312,0,0,0,2.625,0V2.51a1.3,1.3,0,0,0-.443-.975,1.314,1.314,0,0,0-.248-.222c-.03-.02-.063-.034-.094-.051a1.309,1.309,0,0,0-.132-.069,1.239,1.239,0,0,0-.13-.04c-.038-.011-.075-.026-.115-.034a1.3,1.3,0,0,0-.257-.026H37.112a1.311,1.311,0,1,0,0,2.622h1.57L34.359,8.034a1.312,1.312,0,0,0,.928,2.239Z" transform="translate(-19.737 -1.093)" fill="#fff"/>
      </g>
    </g>
  </g>
</svg>
